<?xml version="1.0" standalone="no"?>
<!DOCTYPE svg PUBLIC "-//W3C//DTD SVG 1.0//EN" "http://www.w3.org/TR/2001/REC-SVG-20010904/DTD/svg10.dtd">
<svg xmlns="http://www.w3.org/2000/svg" xmlns:xlink="http://www.w3.org/1999/xlink" id="body_1" width="62" height="15">

<g transform="matrix(0.62 0 0 0.625 0 0)">
    <path transform="matrix(1 0 0 1 0 0)"  d="M-1 -1L99 -1L99 14L-1 14L-1 -1z" stroke="none" fill="none" />
    <path transform="matrix(1 0 0 1 0 0)"  d="M0.33333 2.84514C 0.5960033 4.644468 1.378679 6.044318 2.37724 6.50076L2.37724 6.50076L5.56865 6.50076L5.73216 6.61682L5.73216 21.16539L7.7235 21.16539L7.7235 6.6379L7.90454 6.521841L11.09888 6.521841C 12.09365 6.053358 12.87348 4.658614 13.14278 2.866251L13.14278 2.866251L13.14278 2.82931L0.3333406 2.82931L0.3333406 2.84514L0.33333 2.84514zM70.00419 2.82405L68.01868 2.82405L68.01868 21.20759L77.11113 21.20759C 77.98579 20.59595 78.63554 19.2403 78.84554 17.58891L78.84554 17.58891L69.99834 17.58891L70.0042 2.824049zM54.72454 6.44273C 55.78154 5.91521 56.66918 4.42766 56.88233 2.81351L56.88233 2.81351L45.75765 2.84514L45.75765 13.68538L54.85886 13.68538L54.85886 17.49923L47.71687 17.49923C 46.61547 18.01501 45.68945 19.35953 45.17368 21.19177L45.17368 21.19177L56.82102 21.19177L56.82102 10.07725L47.72272 10.07725L47.72272 6.442739L54.72454 6.442739zM88.6446 21.19705L90.61843 21.19705L90.61843 13.80143L97.79545 13.80143L97.79545 21.19705L99.76634 21.19705L99.76634 10.1089L88.64459 10.08779L88.64459 21.19706zM25.25437 6.48493L32.84601 6.48493C 33.85978 6.044331 34.65342 4.620681 34.90451 2.79239L34.90451 2.79239L23.19587 2.79239C 23.44933 4.618242 24.24194 6.040021 25.25437 6.48493zM25.25437 13.74866L32.84601 13.74866C 33.8591 13.3059 34.65223 11.88321 34.90451 10.05615L34.90451 10.05615L23.19587 10.05615C 23.45052 11.88078 24.24261 13.30162 25.25437 13.74866zM25.25437 21.20759L32.84601 21.20759C 33.8591 20.76483 34.65223 19.34212 34.90451 17.51505L34.90451 17.51505L23.19587 17.51505C 23.44992 19.3403 24.24227 20.76161 25.25437 21.20759zM90.39944 6.49547L97.99108 6.49547C 99.00563 6.055511 99.80032 4.632011 100.0525 2.80293L100.0525 2.80293L88.34093 2.80293C 88.59322 4.630001 89.38634 6.052711 90.39944 6.49547z" stroke="#FFFFFF" stroke-width="1" fill="#000000" fill-rule="nonzero" stroke-opacity="0" />
</g>
</svg>